<?xml version="1.0" encoding="UTF-8"?>
<svg xmlns="http://www.w3.org/2000/svg" version="1.1" viewBox="0 0 500 500">
  <!-- Generator: Adobe Illustrator 30.4.0, SVG Export Plug-In . SVG Version: 2.1.4 Build 226)  -->
  <defs>
    <style>
      .st0 {
        fill: #ffc05c;
      }

      .st1 {
        fill: #121524;
      }

      .st2 {
        display: none;
      }

      .st3 {
        fill: #db954f;
      }
    </style>
  </defs>
  <g id="BACKGROUNDS" class="st2">
    <rect class="st1" width="500" height="500"/>
  </g>
  <g id="OBJECTS">
    <g>
      <polygon class="st0" points="190.65 326.99 164.94 353.33 152.09 366.49 98.26 421.62 79.87 440.46 79.87 387.81 98.26 368.98 126.38 340.18 139.23 327.01 164.94 300.68 190.65 326.99"/>
      <polygon class="st0" points="420.13 387.81 420.13 440.46 401.74 421.62 347.93 366.49 335.08 353.33 309.37 326.99 335.06 300.68 360.77 327.01 373.62 340.18 401.74 368.98 420.13 387.81"/>
      <polygon class="st3" points="164.94 300.68 190.65 326.99 164.94 353.33 152.09 366.49 151.77 366.18 126.38 340.18 139.23 327.01 164.94 300.68"/>
      <polygon class="st3" points="373.62 340.18 347.93 366.49 335.08 353.33 309.37 326.99 335.06 300.68 360.77 327.01 373.62 340.18"/>
      <polygon class="st0" points="456.9 228.54 435.94 250 420.13 266.22 410.25 276.33 401.74 285.05 360.77 327.01 335.08 353.33 250.01 440.46 164.94 353.33 139.23 327.01 98.26 285.05 89.75 276.33 79.87 266.2 64.06 250 43.1 228.54 69.41 202.83 79.87 213.55 89.77 223.69 98.26 232.38 115.46 250 164.94 300.68 190.65 326.99 250.01 387.81 309.37 326.99 335.06 300.68 384.54 250 401.74 232.38 410.23 223.69 420.13 213.55 430.59 202.83 456.9 228.54"/>
      <polygon class="st3" points="89.77 223.69 98.26 232.38 98.26 285.05 89.75 276.33 79.87 266.2 64.06 250 43.1 228.54 69.41 202.83 79.87 213.55 89.77 223.69"/>
      <polygon class="st3" points="79.87 387.81 98.26 368.98 98.26 421.62 79.87 440.46 79.87 387.81"/>
      <polygon class="st3" points="401.74 368.98 420.13 387.81 420.13 440.46 401.74 421.62 401.74 368.98"/>
      <polygon class="st3" points="456.9 228.54 435.94 250 420.13 266.22 410.25 276.33 401.74 285.05 401.74 232.38 410.23 223.69 420.13 213.55 430.59 202.83 456.9 228.54"/>
      <polygon class="st1" points="456.9 59.54 456.9 440.46 420.13 440.46 420.13 122.91 365.99 178.36 340.3 204.67 290.81 255.35 265.12 281.68 250.01 297.15 234.89 281.68 209.2 255.35 159.72 204.67 134.01 178.36 79.87 122.89 79.87 440.46 43.1 440.46 43.1 59.54 69.41 59.54 79.87 70.27 159.72 152.04 185.41 178.36 234.89 229.04 250.01 244.5 265.12 229.04 314.61 178.36 340.3 152.04 420.13 70.27 430.59 59.54 456.9 59.54"/>
      <polygon class="st0" points="345.06 59.54 339.55 65.19 297.53 108.23 284.01 122.09 257.96 148.76 250 156.9 242.05 148.76 216 122.09 202.48 108.23 160.45 65.19 154.94 59.54 345.06 59.54"/>
    </g>
  </g>
</svg>